<mxfile host="app.diagrams.net" modified="2024-06-18T22:59:35.705Z" agent="Mozilla/5.0 (Windows NT 10.0; Win64; x64) AppleWebKit/537.36 (KHTML, like Gecko) Chrome/126.0.0.0 Safari/537.36" etag="izKxFzyPwmpzM4a7frzP" version="24.5.5" type="device">
  <diagram id="C5RBs43oDa-KdzZeNtuy" name="Page-1">
    <mxGraphModel dx="2261" dy="746" grid="1" gridSize="10" guides="1" tooltips="1" connect="1" arrows="1" fold="1" page="1" pageScale="1" pageWidth="827" pageHeight="1169" math="0" shadow="0">
      <root>
        <mxCell id="WIyWlLk6GJQsqaUBKTNV-0" />
        <mxCell id="WIyWlLk6GJQsqaUBKTNV-1" parent="WIyWlLk6GJQsqaUBKTNV-0" />
        <mxCell id="jctV4I0PtKQP-uKO84Tb-2" style="edgeStyle=none;rounded=0;orthogonalLoop=1;jettySize=auto;html=1;" edge="1" parent="WIyWlLk6GJQsqaUBKTNV-1" source="jctV4I0PtKQP-uKO84Tb-3" target="jctV4I0PtKQP-uKO84Tb-1">
          <mxGeometry relative="1" as="geometry">
            <mxPoint x="385" y="90" as="sourcePoint" />
          </mxGeometry>
        </mxCell>
        <mxCell id="jctV4I0PtKQP-uKO84Tb-1" value="Segundos_Restante = 0" style="rounded=1;whiteSpace=wrap;html=1;" vertex="1" parent="WIyWlLk6GJQsqaUBKTNV-1">
          <mxGeometry x="317.49" y="110" width="135" height="30" as="geometry" />
        </mxCell>
        <mxCell id="jctV4I0PtKQP-uKO84Tb-3" value="Inicio" style="strokeWidth=2;html=1;shape=mxgraph.flowchart.start_1;whiteSpace=wrap;" vertex="1" parent="WIyWlLk6GJQsqaUBKTNV-1">
          <mxGeometry x="340" y="30" width="90" height="40" as="geometry" />
        </mxCell>
        <mxCell id="jctV4I0PtKQP-uKO84Tb-9" style="edgeStyle=none;rounded=0;orthogonalLoop=1;jettySize=auto;html=1;exitX=0.5;exitY=1;exitDx=0;exitDy=0;exitPerimeter=0;entryX=0.5;entryY=0;entryDx=0;entryDy=0;" edge="1" parent="WIyWlLk6GJQsqaUBKTNV-1" source="jctV4I0PtKQP-uKO84Tb-5" target="jctV4I0PtKQP-uKO84Tb-6">
          <mxGeometry relative="1" as="geometry" />
        </mxCell>
        <mxCell id="jctV4I0PtKQP-uKO84Tb-5" value="&quot;Por favor, ingrese el tiempo en segundos.&quot;" style="strokeWidth=2;html=1;shape=mxgraph.flowchart.display;whiteSpace=wrap;" vertex="1" parent="WIyWlLk6GJQsqaUBKTNV-1">
          <mxGeometry x="310.63" y="170" width="148.75" height="70" as="geometry" />
        </mxCell>
        <mxCell id="jctV4I0PtKQP-uKO84Tb-11" style="edgeStyle=none;rounded=0;orthogonalLoop=1;jettySize=auto;html=1;exitX=0.5;exitY=1;exitDx=0;exitDy=0;entryX=0.5;entryY=0;entryDx=0;entryDy=0;" edge="1" parent="WIyWlLk6GJQsqaUBKTNV-1" source="jctV4I0PtKQP-uKO84Tb-6" target="jctV4I0PtKQP-uKO84Tb-10">
          <mxGeometry relative="1" as="geometry" />
        </mxCell>
        <mxCell id="jctV4I0PtKQP-uKO84Tb-6" value="&#39;Tiempo_En_Segundos&#39;" style="shape=parallelogram;html=1;strokeWidth=2;perimeter=parallelogramPerimeter;whiteSpace=wrap;rounded=1;arcSize=12;size=0.23;" vertex="1" parent="WIyWlLk6GJQsqaUBKTNV-1">
          <mxGeometry x="290" y="270" width="190" height="50" as="geometry" />
        </mxCell>
        <mxCell id="jctV4I0PtKQP-uKO84Tb-8" style="edgeStyle=none;rounded=0;orthogonalLoop=1;jettySize=auto;html=1;exitX=0.5;exitY=1;exitDx=0;exitDy=0;entryX=0.5;entryY=0;entryDx=0;entryDy=0;entryPerimeter=0;" edge="1" parent="WIyWlLk6GJQsqaUBKTNV-1" source="jctV4I0PtKQP-uKO84Tb-1" target="jctV4I0PtKQP-uKO84Tb-5">
          <mxGeometry relative="1" as="geometry" />
        </mxCell>
        <mxCell id="jctV4I0PtKQP-uKO84Tb-16" style="edgeStyle=none;rounded=0;orthogonalLoop=1;jettySize=auto;html=1;exitX=0;exitY=0.5;exitDx=0;exitDy=0;entryX=0.5;entryY=0;entryDx=0;entryDy=0;" edge="1" parent="WIyWlLk6GJQsqaUBKTNV-1" source="jctV4I0PtKQP-uKO84Tb-10" target="jctV4I0PtKQP-uKO84Tb-14">
          <mxGeometry relative="1" as="geometry">
            <mxPoint x="120" y="410" as="targetPoint" />
            <Array as="points">
              <mxPoint x="170" y="410" />
            </Array>
          </mxGeometry>
        </mxCell>
        <mxCell id="jctV4I0PtKQP-uKO84Tb-18" value="Falso" style="edgeLabel;html=1;align=center;verticalAlign=middle;resizable=0;points=[];" vertex="1" connectable="0" parent="jctV4I0PtKQP-uKO84Tb-16">
          <mxGeometry x="-0.1563" y="-1" relative="1" as="geometry">
            <mxPoint as="offset" />
          </mxGeometry>
        </mxCell>
        <mxCell id="jctV4I0PtKQP-uKO84Tb-10" value="Tiempo_En_Segundos&#39; &amp;gt; 600" style="rhombus;whiteSpace=wrap;html=1;" vertex="1" parent="WIyWlLk6GJQsqaUBKTNV-1">
          <mxGeometry x="298.75" y="350" width="172.49" height="120" as="geometry" />
        </mxCell>
        <mxCell id="jctV4I0PtKQP-uKO84Tb-14" value="&#39;Segundos_Restante&#39; = 600 - &#39;Tiempo_En_Segundos&#39;" style="rounded=1;whiteSpace=wrap;html=1;" vertex="1" parent="WIyWlLk6GJQsqaUBKTNV-1">
          <mxGeometry x="15" y="440" width="310" height="60" as="geometry" />
        </mxCell>
        <mxCell id="jctV4I0PtKQP-uKO84Tb-19" value="&quot;*Mayor*&quot;" style="strokeWidth=2;html=1;shape=mxgraph.flowchart.display;whiteSpace=wrap;" vertex="1" parent="WIyWlLk6GJQsqaUBKTNV-1">
          <mxGeometry x="510" y="430" width="148.75" height="70" as="geometry" />
        </mxCell>
        <mxCell id="jctV4I0PtKQP-uKO84Tb-20" style="edgeStyle=none;rounded=0;orthogonalLoop=1;jettySize=auto;html=1;entryX=0.545;entryY=0;entryDx=0;entryDy=0;entryPerimeter=0;" edge="1" parent="WIyWlLk6GJQsqaUBKTNV-1" source="jctV4I0PtKQP-uKO84Tb-19" target="jctV4I0PtKQP-uKO84Tb-19">
          <mxGeometry relative="1" as="geometry" />
        </mxCell>
        <mxCell id="jctV4I0PtKQP-uKO84Tb-21" style="edgeStyle=none;rounded=0;orthogonalLoop=1;jettySize=auto;html=1;exitX=1;exitY=0.5;exitDx=0;exitDy=0;entryX=0.5;entryY=0;entryDx=0;entryDy=0;entryPerimeter=0;" edge="1" parent="WIyWlLk6GJQsqaUBKTNV-1" source="jctV4I0PtKQP-uKO84Tb-10" target="jctV4I0PtKQP-uKO84Tb-19">
          <mxGeometry relative="1" as="geometry">
            <Array as="points">
              <mxPoint x="584" y="410" />
            </Array>
          </mxGeometry>
        </mxCell>
        <mxCell id="jctV4I0PtKQP-uKO84Tb-23" value="Verdadero" style="edgeLabel;html=1;align=center;verticalAlign=middle;resizable=0;points=[];" vertex="1" connectable="0" parent="jctV4I0PtKQP-uKO84Tb-21">
          <mxGeometry x="0.2041" y="1" relative="1" as="geometry">
            <mxPoint as="offset" />
          </mxGeometry>
        </mxCell>
        <mxCell id="jctV4I0PtKQP-uKO84Tb-24" value="Fin&lt;div&gt;&lt;br&gt;&lt;/div&gt;" style="strokeWidth=2;html=1;shape=mxgraph.flowchart.terminator;whiteSpace=wrap;" vertex="1" parent="WIyWlLk6GJQsqaUBKTNV-1">
          <mxGeometry x="340" y="700" width="100" height="60" as="geometry" />
        </mxCell>
        <mxCell id="jctV4I0PtKQP-uKO84Tb-25" style="edgeStyle=none;rounded=0;orthogonalLoop=1;jettySize=auto;html=1;exitX=0.5;exitY=1;exitDx=0;exitDy=0;exitPerimeter=0;entryX=1;entryY=0.5;entryDx=0;entryDy=0;entryPerimeter=0;" edge="1" parent="WIyWlLk6GJQsqaUBKTNV-1" source="jctV4I0PtKQP-uKO84Tb-19" target="jctV4I0PtKQP-uKO84Tb-24">
          <mxGeometry relative="1" as="geometry">
            <Array as="points">
              <mxPoint x="584" y="730" />
            </Array>
          </mxGeometry>
        </mxCell>
        <mxCell id="jctV4I0PtKQP-uKO84Tb-26" value="Los segundos que hacen falta para llegar a 10 minutos son:&amp;nbsp;&#39;Segundos_Restante&#39;" style="strokeWidth=2;html=1;shape=mxgraph.flowchart.display;whiteSpace=wrap;" vertex="1" parent="WIyWlLk6GJQsqaUBKTNV-1">
          <mxGeometry x="-16.090000000000003" y="545" width="372.19" height="80" as="geometry" />
        </mxCell>
        <mxCell id="jctV4I0PtKQP-uKO84Tb-27" style="edgeStyle=none;rounded=0;orthogonalLoop=1;jettySize=auto;html=1;exitX=0.5;exitY=1;exitDx=0;exitDy=0;entryX=0.5;entryY=0;entryDx=0;entryDy=0;entryPerimeter=0;" edge="1" parent="WIyWlLk6GJQsqaUBKTNV-1" source="jctV4I0PtKQP-uKO84Tb-14" target="jctV4I0PtKQP-uKO84Tb-26">
          <mxGeometry relative="1" as="geometry" />
        </mxCell>
        <mxCell id="jctV4I0PtKQP-uKO84Tb-28" style="edgeStyle=none;rounded=0;orthogonalLoop=1;jettySize=auto;html=1;exitX=0.5;exitY=1;exitDx=0;exitDy=0;exitPerimeter=0;entryX=0;entryY=0.5;entryDx=0;entryDy=0;entryPerimeter=0;" edge="1" parent="WIyWlLk6GJQsqaUBKTNV-1" source="jctV4I0PtKQP-uKO84Tb-26" target="jctV4I0PtKQP-uKO84Tb-24">
          <mxGeometry relative="1" as="geometry">
            <Array as="points">
              <mxPoint x="170" y="730" />
            </Array>
          </mxGeometry>
        </mxCell>
      </root>
    </mxGraphModel>
  </diagram>
</mxfile>
